<?xml version="1.0" encoding="utf-8"?>
<!-- Generator: Adobe Illustrator 25.2.1, SVG Export Plug-In . SVG Version: 6.00 Build 0)  -->
<svg version="1.1" id="Layer_1" xmlns="http://www.w3.org/2000/svg" xmlns:xlink="http://www.w3.org/1999/xlink" x="0px" y="0px"
	 viewBox="0 0 327.74 219.62" style="enable-background:new 0 0 327.74 219.62;" xml:space="preserve">
<style type="text/css">
	.st0{fill:none;}
	.st1{opacity:0.5;fill:#FFFFFF;}
	.st2{fill:#FFFFFF;}
	.st3{fill:#E1262D;}
	.st4{fill:#059FC0;}
	.st5{fill:#F7B329;}
	.st6{fill:#EE7B2B;}
	.st7{fill:#787878;}
	.st8{fill:#FCB449;}
	.st9{fill:none;stroke:#FCB449;stroke-miterlimit:10;}
</style>
<g>
	<g>
		<path class="st8" d="M30.72,197.67c-2.56,0-4.64-1.27-5.69-3.49c-2.09-4.43,0-11.31,5.47-17.96c6.18-7.52,7.83-14.15,8.92-18.53
			c0.38-1.52,0.7-2.83,1.13-3.89c0.69-1.68,0.42-3.68-0.67-5.1c-0.89-1.16-2.24-1.82-3.91-1.91c-0.45-0.02-2.6-2.16-1.74-2.53
			c2.75-0.53,6,0.61,7.72,2.86c1.64,2.14,2.03,5.15,1.01,7.67c-0.36,0.88-0.66,2.11-1.02,3.53c-1.14,4.61-2.87,11.59-9.43,19.56
			c-5.4,6.56-6.47,12.36-5.13,15.19c0.63,1.33,1.91,1.99,3.5,1.99L30.72,197.67z"/>
	</g>
	<g>
		<path class="st8" d="M297.42,44.77c-2.77-4.79-21.64-6.18-30.55-5.56c-14.2,1-28.49,14.42-38.92,24.23l-2.09,1.96
			c-9.93,5.56-18.68,13.35-27.15,20.89c-1.57,1.4-3.13,2.78-4.68,4.15c-0.26,0.23-0.47,0.51-0.61,0.83c-0.8-0.33-1.73-0.2-2.4,0.36
			c-18.22,14.97-36.79,29.04-55.22,41.8c-0.37,0.26-0.66,0.61-0.83,1.03c-0.56,1.34-1.05,2.49-1.5,3.55
			c-0.41-0.06-0.84-0.01-1.24,0.15c-0.39,0.16-9.59,3.89-15.08,6.66c-0.46,0.23-0.83,0.61-1.06,1.07c-0.3,0.62-7.44,15.32-9.25,24.7
			c-0.15,0.76,0.09,1.53,0.61,2.08c-25.49,8.68-44.98,14.51-63.2,18.9c-26.35,6.34-26.28,8.54-26.21,10.66
			c0.03,0.85,0.42,1.62,1.12,2.17c3.69,2.95,23.65-0.65,23.85-0.69c25.53-4.9,51.67-14.56,76.95-23.9l0.88-0.33
			c14.55,2.84,29.3-1.53,43.29-7.3c1.48-0.61,2.95-1.24,4.42-1.87c25.97-11.27,49.95-32.48,71.11-51.19l1.07-0.95
			c0.01-0.01,0.01-0.02,0.02-0.02c0.01-0.01,0.02-0.02,0.04-0.03c1.82-1.71,3.67-3.44,5.54-5.17
			c13.39-12.46,27.22-25.33,36.31-41.01C293.8,64.4,300.1,49.4,297.42,44.77z M166.67,165.97c-14.77,6.4-30.51,11.9-45.52,8.74
			c-0.44-0.09-0.89-0.06-1.31,0.1l-1.51,0.56c-25.1,9.27-51.05,18.86-76.21,23.69c-3.81,0.73-9.19,1.37-13.47,1.64
			c3.61-1.17,8.98-2.68,16.72-4.55c18.39-4.43,38.05-10.31,63.74-19.07c34.75-11.93,69.45-29.24,109.18-54.49
			c1.08-0.69,1.42-2.11,0.76-3.2c-0.65-1.1-2.05-1.48-3.18-0.86c-33.97,18.91-69.85,38.19-103.39,48.97
			c2.17-7.33,6.3-16.28,7.52-18.84c3.07-1.51,7.15-3.27,10.11-4.52c-0.14,0.86-0.29,1.77-0.48,2.9c-0.2,1.18,0.51,2.31,1.66,2.65
			c1.14,0.34,2.36-0.22,2.84-1.32c2.03-4.63,3.05-7,4.93-11.47c16.93-11.75,33.98-24.59,50.76-38.21c-0.05,0.83-0.11,1.72-0.19,2.78
			c-0.08,1.17,0.7,2.21,1.84,2.47c1.14,0.25,2.3-0.36,2.72-1.45c1.39-3.59,2.11-5.48,3.39-8.9c1.42-1.25,2.84-2.51,4.27-3.78
			c7.38-6.57,14.98-13.34,23.26-18.49c0,0.16,0.01,0.33,0.01,0.49c0.04,1.87,0.06,3.71,0.07,5.51c0,0.07,0,0.14,0,0.22
			c0.01,1.84,0,3.64-0.01,5.42c0,0.12,0,0.23,0,0.35c-0.02,1.74-0.06,3.45-0.1,5.14c-0.01,0.2-0.01,0.39-0.02,0.59
			c-0.05,1.64-0.11,3.25-0.19,4.83c-0.01,0.23-0.02,0.46-0.03,0.68c-0.08,1.56-0.17,3.1-0.27,4.63c-0.02,0.23-0.03,0.46-0.05,0.69
			c-0.11,1.52-0.23,3.02-0.36,4.51c-0.02,0.2-0.04,0.4-0.06,0.6c-0.14,1.51-0.29,3.01-0.45,4.49c-0.02,0.13-0.03,0.27-0.05,0.4
			c-0.18,1.55-0.36,3.08-0.57,4.6c-0.09,0.63,0.08,1.26,0.47,1.76c0.39,0.5,0.95,0.83,1.58,0.9c0.58,0.07,1.13,0.14,1.66,0.21
			c0.18,0.02,0.36,0.04,0.53,0.07c0.47,0.06,0.93,0.12,1.37,0.17c0.17,0.02,0.33,0.04,0.49,0.06c0.33,0.04,0.65,0.08,0.96,0.12
			c0.16,0.02,0.33,0.04,0.49,0.06c0.42,0.05,0.84,0.1,1.26,0.15c0.11,0.01,0.22,0.03,0.33,0.04c0.47,0.05,0.94,0.11,1.41,0.16
			C213.43,135.98,190.78,155.51,166.67,165.97z M279.57,68.3c-0.32,0.21-0.58,0.48-0.77,0.81c-8.73,15.27-22.44,28.04-35.71,40.38
			c-1.6,1.49-3.19,2.97-4.76,4.44c-0.06-0.01-0.13-0.01-0.2-0.02c-0.24-0.03-0.48-0.05-0.71-0.08c-0.35-0.04-0.7-0.08-1.04-0.11
			c-0.09-0.01-0.18-0.02-0.28-0.03c-1.86-0.21-3.46-0.39-5.19-0.6c-0.03,0-0.06-0.01-0.09-0.01c-0.41-0.05-0.82-0.1-1.24-0.15
			c-0.04-0.01-0.08-0.01-0.13-0.02c-0.46-0.06-0.94-0.11-1.44-0.18c0.1-0.83,0.2-1.67,0.3-2.51c0.05-0.45,0.1-0.9,0.15-1.35
			c0.04-0.39,0.09-0.78,0.13-1.18c0.05-0.47,0.09-0.95,0.14-1.43c0.04-0.38,0.08-0.76,0.11-1.15c0.04-0.48,0.08-0.96,0.12-1.44
			c0.03-0.39,0.07-0.77,0.1-1.16c0.04-0.49,0.07-0.98,0.11-1.48c0.03-0.39,0.06-0.77,0.09-1.17c0.03-0.48,0.06-0.96,0.09-1.45
			c0.03-0.41,0.05-0.83,0.08-1.24c0.03-0.47,0.05-0.95,0.08-1.42c0.02-0.43,0.05-0.87,0.07-1.31c0.02-0.46,0.04-0.93,0.06-1.4
			c0.02-0.46,0.04-0.92,0.06-1.38c0.02-0.46,0.03-0.92,0.05-1.39c0.02-0.47,0.03-0.95,0.05-1.43c0.01-0.46,0.02-0.92,0.03-1.39
			c0.01-0.49,0.02-0.99,0.03-1.48c0.01-0.46,0.02-0.92,0.02-1.38c0.01-0.51,0.02-1.03,0.02-1.54c0-0.46,0.01-0.92,0.01-1.39
			c0-0.53,0.01-1.05,0.01-1.58c0-0.47,0-0.94,0-1.41c0-0.54,0-1.08-0.01-1.63c0-0.47-0.01-0.95-0.01-1.43
			c-0.01-0.55-0.01-1.1-0.02-1.65c-0.01-0.49-0.02-0.99-0.02-1.48c-0.01-0.55-0.02-1.1-0.03-1.65c-0.01-0.52-0.02-1.05-0.04-1.58
			c-0.01-0.36-0.02-0.72-0.03-1.08l1.42-1.33c9.92-9.32,23.5-22.08,36.01-22.96c10.75-0.76,24.09,1.47,26.12,3.23
			C293.85,49.49,289.91,61.6,279.57,68.3z"/>
		<g>
			<g>
				<path class="st2" d="M226.82,66.22c0.03-0.03,0.07-0.06,0.1-0.1c0.47,15.95,0.16,31.75-2,47.58c5.49,0.69,8.25,1.01,13.78,1.61
					c-21.79,19.27-45.5,40.43-71.55,51.73c-14.05,6.09-30.85,12.27-46.95,8.89c-25.49,9.42-52.24,19.39-78.09,24.36
					c-5.84,1.12-22.09,3.02-22.16,0.76c-0.07-2.25,18.63-6.9,24.4-8.29c21.3-5.13,42.62-11.88,63.53-19
					c38.85-13.33,66.5-28.29,101.59-49.79c-31.93,17.77-64.45,34.97-100.76,45.96c1.77-9.17,9.05-24.11,9.05-24.11
					c5.47-2.76,14.9-6.58,14.9-6.58c-0.45,2.84-0.68,4.26-1.16,7.1c2.12-4.83,3.15-7.24,5.19-12.08
					c19.02-13.18,37.49-27.22,55.37-41.92c-0.2,3.28-0.3,4.92-0.52,8.2c1.46-3.77,2.18-5.66,3.59-9.43
					C205.09,82.39,215.19,72.67,226.82,66.22z"/>
				<path class="st7" d="M226.92,66.12c10.62-9.91,25.35-24.64,39.66-25.65c10.7-0.75,26.62,1.4,28.34,4.38
					c1.72,2.98-3.36,17.1-14.52,24.34c-10.16,17.79-26.97,32.25-41.7,46.12c-5.53-0.6-8.29-0.92-13.78-1.61
					C227.08,97.87,227.4,82.07,226.92,66.12z"/>
			</g>
		</g>
		<g>
			<path class="st8" d="M216.31,119.74c7.89-5.35,15.35-11.3,22.59-17.5c7.23-6.2,14.27-12.65,20.82-19.58l0.07,0.07
				c-1.5,1.86-3.1,3.64-4.7,5.41c-1.63,1.74-3.31,3.45-5,5.14c-3.39,3.37-6.96,6.55-10.54,9.71c-3.67,3.06-7.37,6.1-11.22,8.92
				c-1.94,1.4-3.89,2.78-5.86,4.13c-2.02,1.29-4.02,2.59-6.1,3.77L216.31,119.74z"/>
		</g>
	</g>
	<g>
		<g>
			<g>
				<path class="st7" d="M231.03,18.41c-3.5-2.17-17.68,5.26-23.67,9.48c-6.63,4.67-12.03,12.43-16.45,20.44
					c0.83,1.7,1.68,3.33,2.24,4.04c1.59-3.77,9.12-8.04,14.58-12.02c-8.23,9.83-7.63,22.43-7.63,22.43s-4.86,8.64-6.84,12.61
					c-1.98,3.97-3.68,0.73-3.68,0.73s-2.82,1.19-4.56,5.13c-2,4.56,2.53,4.44,6,3.72c2.19-2.79,9.51-9.72,7.44-6.61
					c-1.8,2.57-3.96,3.74-5.87,6.23c0.02-0.01,0.03,0,0.02,0.01c0.49,0.02-3.38,5.56-7.44,9.19c-5.09,6.03-10.41,11.86-15.85,17.56
					c-10.36,10.79-21.41,20.88-32.62,30.75c-5.75,4.77-11.45,9.59-17.23,14.32l-14.25,10.93l0,0l13.85-11.41
					c5.71-4.8,11.34-9.69,17.02-14.53l8.28-7.52c2.74-2.53,5.57-4.96,8.21-7.6l8.04-7.78l2.01-1.95l1.94-2.01l3.89-4.02
					c0.53-0.55,1.05-1.11,1.57-1.66c2.22-2.37,4.36-4.76,4.85-5.25c-1.56-2.67-1.06-5.64,0.68-10.54
					c-4.4,0.64-9.89,5.03-11.27,10.69c-1.14-2.28-1.31-7.45-1.29-10.91c-0.55,0.11-1.08,0.45-1.44,0.93
					c-12.11,16.36-25.7,31.62-40.51,45.47c-0.29,0.27-0.51,0.6-0.63,0.95c-0.37,1.14-0.7,2.12-1.01,3.02
					c-0.36,0.03-0.73,0.15-1.06,0.35c-0.33,0.19-8.02,4.76-12.67,7.78c-0.11,0.07-0.2,0.17-0.3,0.26c-0.24,0.22-0.45,0.46-0.57,0.74
					c-0.16,0.36-2.86,6.31-5,12.43c-0.5-2.61-1.2-5.48-1.78-7.02c0.65,4.16,0.67,8.33,0.62,10.58c-0.01,0.02-0.01,0.05-0.02,0.07
					c-1.03-1.47-1.68-3.4-2.32-4.67c0.1,2.05,0.66,4.48,1.26,6.77c-1.45-3.7-4.21-8.36-7.22-10.18c5.55,5.19,5.94,13.75,5.95,13.9
					c-0.09-1.04-0.22-0.04-0.23-0.04c-0.05-0.12-2.13-4.74-4.17-6.66c2.33,3.79,2.29,7.09,2.24,8.85c-3.19,1.73-6.08,3.29-9.39,4.8
					c-14.07,6.43-29.1,11-44.34,14.46c-24.64,5.59-25.53,5.05-25.69,6.65c-0.06,0.64,0.22,1.23,0.81,1.66
					c3.13,2.29,22.16-0.5,22.35-0.54c25.05-4.94,48.46-14.36,71.72-25.45c0.32-0.16,0.48-0.24,0.8-0.4
					c14.52-0.21,27.26-7.41,38.7-14.48c1.27-0.78,2.6-1.68,3.79-2.55c21.9-16.04,38.91-37.89,53.34-62.08
					c0.27-0.45,0.41-0.68,0.68-1.13c0-0.01,0.01-0.02,0.01-0.02c0.01-0.01,0.02-0.02,0.02-0.04c1.13-2,2.26-4.05,3.4-6.08
					c7.94-14.24,15.25-29.49,18-46.08C234.6,34.49,234.41,20.5,231.03,18.41z M156.7,106.69c0.28-0.48,1.57-2.09,2.24-1.91
					c0.24,0.06,1.08,2.6,1.17,2.54c-1.12,0.78-2.19,1.65-3.18,2.6C156.11,109.09,156.13,107.69,156.7,106.69z M141.68,120.96
					c0.49-0.3,1.09-1.37,1.62-1.03c0.46,0.29,0.26,1.84,0.17,2.27c-0.06,0.28-0.16,0.56-0.38,0.73c-0.35,0.26-0.86,0.14-1.22,0.38
					C142.08,122.54,142.01,121.69,141.68,120.96z"/>
				<path class="st8" d="M175.58,93.1c-1.74,4.9-2.24,7.87-0.68,10.54c-0.5,0.49-2.63,2.88-4.85,5.25
					c-0.53,0.55-1.04,1.11-1.57,1.66l-3.89,4.02l-1.94,2.01l-2.01,1.95l-8.04,7.78c-2.64,2.63-5.47,5.07-8.21,7.6l-8.28,7.52
					c-5.68,4.84-11.31,9.73-17.02,14.53l-13.5,11.23l0,0l13.9-10.75c5.78-4.73,11.48-9.55,17.23-14.32
					c11.21-9.88,22.26-19.96,32.62-30.75c5.43-5.7,10.76-11.53,15.85-17.56c4.05-3.63,7.93-9.17,7.44-9.19
					c0.01-0.01,0-0.02-0.02-0.01c1.91-2.49,4.07-3.65,5.87-6.23c2.08-3.12-5.24,3.82-7.44,6.61c-3.47,0.72-8.01,0.84-6-3.72
					c1.73-3.94,4.56-5.13,4.56-5.13s1.69,3.24,3.68-0.73c1.98-3.97,6.84-12.61,6.84-12.61s-0.6-12.6,7.63-22.43
					c-5.45,3.97-12.99,8.24-14.58,12.02c-0.55-0.71-1.41-2.34-2.24-4.04c-2.3,4.18-4.35,8.44-6.15,12.36
					c-0.45,0.88-0.68,1.32-1.14,2.19c-6.32,7.62-11.52,16.3-16.85,24.59c-0.99,1.53-1.98,3.05-2.98,4.55
					c-0.17,0.25-0.28,0.53-0.34,0.81c-0.14,0-0.29,0.02-0.43,0.05c-0.02,3.46,0.15,8.63,1.29,10.91
					C165.7,98.13,171.19,93.73,175.58,93.1z"/>
				<path class="st8" d="M160.11,107.31c-0.08,0.06-0.92-2.47-1.17-2.54c-0.67-0.18-1.96,1.43-2.24,1.91
					c-0.58,1-0.59,2.41,0.23,3.22C157.92,108.96,158.99,108.09,160.11,107.31z"/>
				<path class="st8" d="M143.47,122.2c0.09-0.43,0.29-1.97-0.17-2.27c-0.53-0.34-1.13,0.73-1.62,1.03c0.33,0.73,0.4,1.58,0.19,2.35
					c0.36-0.24,0.87-0.13,1.22-0.38C143.32,122.76,143.42,122.47,143.47,122.2z"/>
			</g>
		</g>
		<path class="st7" d="M101.91,188.43c-0.13-2.01-0.77-3.98-1.84-5.68c4.09,1.8,6.72,5.89,8.39,10.04
			c-0.66-4.05-2.51-7.9-5.28-10.94c1.3,0.96,2.83,1.62,4.43,1.9c-1.18-0.61-2.15-1.62-2.71-2.82c3.1,1.5,6.77,1.12,10.13,0.33
			c-2.29,0.37-4.74-0.4-6.41-2.02c1.58-0.19,3.23,0.33,4.42,1.38c-0.48-1.65-1.38-3.18-2.6-4.39c-0.16-0.16-0.33-0.31-0.54-0.37
			c-0.25-0.06-0.51,0.02-0.75,0.11c-3.36,1.19-6.66,2.52-9.9,3.99c-0.96,0.43-3.21,1.19-3.68,2.22c-0.46,0.99,0.55,1.3,1.3,1.35
			C99.82,183.74,100.92,185.82,101.91,188.43z"/>
		<path class="st8" d="M179.9,123.77c-0.92,1.17-1.84,2.33-2.76,3.5c-1.18,1.49-2.43,3.04-4.19,3.75s-4.16,0.2-4.88-1.55
			c-1.73,1.99-3.86,3.62-6.23,4.77c2.93,2.79,6.48,4.92,10.33,6.18c-1.9,1.74-3.79,3.49-5.69,5.23c-1.06,0.97-2.3,2.01-3.74,1.88
			c-1.68-0.16-2.89-1.91-4.57-2.06c1.04,2.51,2.62,4.8,4.59,6.68c0.22,0.21,0.48,0.42,0.77,0.39c0.24-0.02,0.43-0.19,0.61-0.35
			c4.71-4.25,9.34-8.6,13.69-13.22c3.97-4.21,9.82-9.57,11.95-15C186.81,123.31,183.11,124.3,179.9,123.77z"/>
		<path class="st8" d="M188.06,108.07c-1.03,2.62-2.76,4.95-4.97,6.7c1.22,0.15,2.46,0.3,3.66,0.05c1.2-0.25,2.37-0.98,2.81-2.13
			c0.28-0.72,0.34-1.53,0.17-2.28C189.56,109.62,188.8,108.64,188.06,108.07"/>
		<path class="st8" d="M171.06,117.09c-0.51,0.84-1.09,1.64-1.75,2.37c0.92,0.53,1.99,0.79,3.06,0.75c0.2-0.01,0.4-0.03,0.57-0.13
			c0.18-0.11,0.29-0.31,0.4-0.49c0.43-0.76,0.86-1.52,1.29-2.28C173.28,117.85,172.37,117.71,171.06,117.09"/>
		<path class="st8" d="M140.35,158.4c0.98,0.79,2.56,0.91,3.81,0.75c1.29-0.16,2.19-1.33,2.9-2.43
			C144.89,157.5,142.64,158.07,140.35,158.4"/>
	</g>
	<path class="st8" d="M153.95,82.58c-0.4,0.34-0.75,0.73-1.07,1.14c-0.02-0.09-0.04-0.18-0.06-0.28c0.15-0.53,0.27-1.07,0.31-1.62
		c-0.04,0.35-0.26,0.63-0.5,0.89c-3.03-11.35-13.05-27.38-15.66-25.48c-1.96,1.43-0.72,15.11-1.13,24.85
		c-1.37-1.08-2.05-1.62-3.42-2.69c0,0,1.34,1.6,3.1,4.26c-0.65-0.01-1.36-0.32-1.53-0.89c0.07,0.5,0.29,0.99,0.62,1.42
		c0.21,0.27,0.47,0.52,0.62,0.83c0.2,0.39,0.19,0.82,0.37,1.22c-0.55-0.75-1.23-1.41-1.96-2.01c0.07,0.08,0.14,0.16,0.2,0.24
		c0.84,1.17,1.61,2.47,1.61,3.81c-0.63-0.43-1.23-1.77-1.23-1.77c0,0,0.33,1.23,0.53,1.84c0.15,0.45,0.32,0.92,0.62,1.3
		c-0.01,0.08-0.01,0.16-0.02,0.24c-0.78-0.26-1.44-0.94-1.54-1.68c0.07,0.89,0.45,1.79,1.06,2.55c-1.02-0.59-1.96-1.27-2.43-1.74
		c0.81,2.98,4.32,3.7,7.05,7.48c-1.1-0.98-4.09-2.96-5.73-3.62c2.98,1.73,5.44,5.44,6.01,7.89c-0.54,0.1-1.87-0.69-2.7-2.96
		c0.08,2.18,0.13,3.79,1.06,6.33c-3.48-5.18-5.75-9.93-6.65-12.54c-0.22,3.08,2.58,14.94,3.8,17.43
		c-3.74-2.58-8.63-10.56-8.63-10.56s2.83,14.35,6.24,16.91c-0.8,0.01-5.17-2.49-5.17-2.49c0,0,3.85,5.09,3.85,5.09
		c0,0-4.37-2.09-6.58-4.49c1.17,1.57,3.91,4.33,6.71,6.77c-1-0.45-2-0.87-3.03-1.24c-2.02-0.73-4.28-1.49-5.32-3.26
		c0.1,1.11,0.38,2.23,0.85,3.3c-1.49-1.25-2.41-3.07-2.51-4.85c-0.32,3.68,0.75,7.65,3.1,10.89c-1.47-1.68-3.43-2.98-5.56-3.78
		c1.82,1.05,3.24,2.66,4.23,4.43c0.99,1.78,1.12,2.66,0.93,3.83c-0.75,0.1-1.61-0.42-2.66-1.8c-1.05-1.38-1.76-4.66-1.76-4.66
		c0,0,0.2,5.91,0.98,8.84c-1.48-3.89-2.48-7.81-2.48-11.75c-1.11,4.48-1.7,9.2-1.72,14.03c-0.73-2.48-1.58-5.01-3.36-6.99
		c1.72,3.68,2.37,7.77,1.76,11.73c-0.71-3.07-2.05-6-3.89-8.65c2.25,4.94,3.06,10.44,2.11,15.79c-2.55-3.6-5.22-7.65-4.7-11.73
		c-0.59,2.85-0.71,5.85-0.34,8.84c-1.53-2.17-2-4.83-1.91-7.32c0.09-2.49,0.71-4.87,1.26-7.22c-1.77,3.98-2.7,8.42-2.7,13
		c0,4.69,0.77,7.6-1.24,12.05c-0.18-3.3-0.88-4.44-2.39-7.42c0.9,3.57,0.09,5.64-0.68,9.28c-2.26-2.94-1.49-8.51-1.49-8.51
		c0,0-2.16,6.35-1.63,8.54c-1.23-1.09-2.36-1.69-4.32-2.63c4.44,5.91,5.16,13.45,5.09,20.79c-1.56-4.15-4.18-7.89-7.46-11.06
		c3.35,3.91,3.79,7.9,5.51,12.37c0.06,0.17,0.16,0.34,0.26,0.51c-3.7,2.54-11.27,7.37-15.94,9.55c-4.41,2.06-8.94,3.58-11.24,4.68
		c-1.04,0.5-1.62,0.91-1.52,1.24c0.82,1.73,8.47-1.26,11.64-2.61c2.1-0.89,3.86-1.86,5.88-2.84c2.02-0.98,3.58-2.03,5.57-3.12
		c3.07-1.68,4.83-2.97,7.71-4.91c2,1.51,3.61,4.13,3.84,6.95c0.68-2.11,0.95-4.64-0.85-5.59c0.37,0.16-0.28-0.13,0,0
		c0.91,0.42,1.13,0.3,2.02,0.77c1.48,0.78,4.21,0.5,5.96-0.17c-2.53,0.43-2.66-0.75-3.56-2.28c2.16-0.68,2.86-1.17,5.59,0.71
		c-1.5-1.52,0-2.82-2.21-3.42c0.55-0.03-0.54-0.06,0,0c2.05,0.22,5.2,1.02,6.77,0.74c-1.23-0.58-3.6-3.1-4.03-4.34
		c2.58,0.24,4.53,1.01,6,3.15c-1.05-2.35-2.07-3.83-3.94-5.59c1.35,0.76,2.88,1.22,4.43,1.33c-1.31-0.78-2.1-2.35-1.96-3.86
		c2.78,0.76,4.63,2.78,4.04,5.26c1.25-1.34,1.82-2.74,1.13-4.33c-0.44-1.02-1.05-1.95-1.72-2.85c0.56-0.01,1.12,0,1.7,0.03
		c2.04,0.09,4.16,0.19,6.24-0.33c-1.09,0.21-2.2,0.14-3.22-0.1c-1.43-0.34-2.7-1-3.96-1.66c1.54,0,3.12-0.29,4.62-0.86
		c-1.98,0.32-3.98-0.02-5.6-0.91c3.65-1.59,7.4-3.03,11.22-4.32c2.55-0.86,5.19-1.67,7.82-1.7c-2.88-0.28-5.87-0.09-8.78,0.52
		c0.93-0.53,1.86-1.08,2.79-1.63c-1.99,1.04-4.22,1.54-6.36,1.45c5.31-3.94,11.94-6.39,18.51-6.73c-3.84-0.27-7.78,0.92-11.58,1.93
		c2.97-1.32,6.06-2.84,8.09-5.37c-3.23,3.03-8.02,4.33-12.04,3.34c1.8-0.08,3.62-0.64,5.2-1.61c-1.24,0.22-2.42,0.01-3.54-0.41
		c1.06-0.04,2.13-0.17,3.17-0.35c2.54-0.45,5.16-1.13,7.34-2.65c-0.8,0.03-1.58-0.03-2.34-0.19c3.68-1.24,7.22-3.12,10.39-5.55
		c-4.07,2.08-8.57,3.02-12.87,2.78c3.34-0.81,6.58-2.34,9.39-4.47c-2.84,1.38-5.95,2.07-8.98,2.04c1.1-0.94,2.2-1.91,3.5-2.6
		c1.29-0.68,2.82-1.06,4.17-0.69c-0.61-0.39-1.23-0.78-1.84-1.17c1.58,0.27,3.17,0.55,4.63,1.15c1.46,0.6,2.79,1.54,3.51,2.9
		c-1.98-4.53-6.2-7.8-11.05-9.15c3.83,0.45,7.93-0.5,11.33-2.7c-1.93,0.64-4.23,1.12-6.19,0.82c-0.15-0.02-0.31-0.07-0.48-0.13
		c3.29-0.22,7.36-1.45,11.59-5.12c-5.91,3.3-9.58,3.42-12.11,2.58c6.58-2.26,15.36-8.68,17.03-12.87c-1.98,2.83-8.93,8.18-11.63,7.7
		c4.37-3.56,8.26-8.21,9.17-10c-2.43,2.9-9.47,3.91-11.35,3.08c2.37-2.69,9.06-6.7,11.89-6.43c-1.68-0.3-6.53-0.09-8.15,0.89
		c2.63-2.64,8.75-7.8,10.91-8.6c-1.14-0.06-8.36,2.73-10.03,4.71c2.21-2.95,5.61-10.72,5.46-12.72c-1.11,3.87-3.91,6.74-6.16,6.53
		c3-3.46,4.37-6.39,4.21-10.01c0.05,1.11-1.64,2.74-2.37,3.42c-0.02-0.07-0.01-0.14-0.03-0.2c0,0,0.69-3.47,0.34-4.46
		c-0.08,0.4-0.28,0.76-0.56,1.06c-0.04-0.24-0.09-0.49-0.14-0.74C153.31,83.88,153.59,83.21,153.95,82.58z"/>
	<path class="st9" d="M85.76,179.82c-3.49,2.48,0.61,12.01,6.01,10.17c0.6,1.38-7.69,3.25-8.91,3.75c-1.22,0.5-12.43,3.9-12.43,3.9
		l-11.22,2.78l-13.65,3.44c0,0-5.98,0.89-9.27,1.6c-4.02,0.97-9.07-6.88-4.15-10.77c3.88-1.06,15.21-3.89,15.21-3.89l1.02-1.03
		l17.95-5.06C66.32,184.72,85.16,177.46,85.76,179.82z"/>
	<path class="st7" d="M85.76,179.82c-3.49,2.48,0.61,12.01,6.01,10.17c0.6,1.38-7.69,3.25-8.91,3.75c-1.22,0.5-12.43,3.9-12.43,3.9
		l-11.22,2.78l-13.65,3.44c0,0-5.98,0.89-9.27,1.6c-4.02,0.97-9.07-6.88-4.15-10.77c3.88-1.06,15.21-3.89,15.21-3.89l1.02-1.03
		l17.95-5.06C66.32,184.72,85.16,177.46,85.76,179.82z"/>
	<path class="st8" d="M45.1,195.73c-0.34,1.88-0.34,3.78,0.14,5.63c-1.46-3.21-1.09-7.18,0.94-10.06c0.3-0.42,1.62-1.51,2.18-1.53
		c-1.21,1.16-1.92,2.33-2.24,2.92C45.6,193.65,45.3,194.66,45.1,195.73z"/>
	<path class="st8" d="M61.37,200.11c0,0-1.72-6.22,0.44-10.46c-2.05,2.95-2.91,7.73-1.41,10.47
		C60.76,200.24,61.37,200.11,61.37,200.11z"/>
	<path class="st8" d="M74.35,196.44c-0.27-1.04-1.39-2.55-1.04-5.31c0.26,1.89,1.45,4.81,2.07,5.3
		C74.89,196.68,74.35,196.44,74.35,196.44z"/>
	<path class="st3" d="M41.44,161.25l-3.04-0.74c-1.48-0.36-2.39-1.85-2.03-3.33l0.74-3.04c0.36-1.48,1.85-2.39,3.33-2.03l3.04,0.74
		c1.48,0.36,2.39,1.85,2.03,3.33l-0.74,3.04C44.41,160.7,42.92,161.61,41.44,161.25z"/>
	<path class="st4" d="M39.41,167.16l-2.95-1.05c-1.44-0.51-2.19-2.09-1.67-3.52l1.05-2.95c0.51-1.44,2.09-2.19,3.52-1.67l2.95,1.05
		c1.44,0.51,2.19,2.09,1.67,3.52l-1.05,2.95C42.43,166.92,40.85,167.67,39.41,167.16z"/>
	<path class="st5" d="M36.82,172.82l-2.78-1.43c-1.35-0.7-1.89-2.36-1.19-3.71l1.43-2.78c0.7-1.35,2.36-1.89,3.71-1.19l2.78,1.43
		c1.35,0.7,1.89,2.36,1.19,3.71l-1.43,2.78C39.84,172.98,38.18,173.52,36.82,172.82z"/>
	<path class="st6" d="M32.84,177.92l-2.62-1.71c-1.27-0.83-1.63-2.54-0.8-3.82l1.71-2.62c0.83-1.27,2.54-1.63,3.82-0.8l2.62,1.71
		c1.27,0.83,1.63,2.54,0.8,3.82l-1.71,2.62C35.83,178.4,34.12,178.76,32.84,177.92z"/>
	<polygon class="st8" points="30.32,176.44 31.26,175.31 33.42,176.75 32.51,177.87 	"/>
	<path class="st7" d="M33.7,177.56c-0.45-1.02-2.06-2.06-3.28-2.31C31.24,174.83,34.12,175.75,33.7,177.56z"/>
</g>
</svg>
